# xmcd CD database file
#
# Track frame offsets:
#	150
#	10917
#	25039
#	38866
#	51286
#	70785
#	84112
#	98309
#	113683
#	125315
#	140390
#	151491
#	168757
#
# Disc length: 2397 seconds
#
# Revision: 0
# Processed by: cddbd v1.5.1PL0 Copyright (c) Steve Scherf et al.
# Submitted via: CDex 1.51
#
DISCID=8e095b0d
DTITLE=Lee Conway - Country Classics
DYEAR=1900
DGENRE=Country
TTITLE0=All I Want To Do
TTITLE1=Amanda
TTITLE2=Lady Of The Wind
TTITLE3=Lay A Little Loving On Me
TTITLE4=Can You Feel It
TTITLE5=Love Still Makes The World Go Round
TTITLE6=I Recall A Gypsy Woman
TTITLE7=Thinking Of You
TTITLE8=The Shelter Of Your Eyes
TTITLE9=Lifetime Woman
TTITLE10=Mama Lou
TTITLE11=The Door Is Always Open
TTITLE12=Maybelline
EXTD=
EXTT0=
EXTT1=
EXTT2=
EXTT3=
EXTT4=
EXTT5=
EXTT6=
EXTT7=
EXTT8=
EXTT9=
EXTT10=
EXTT11=
EXTT12=
PLAYORDER=
